{"title":"Arrow.S02E23.HDTV.Greek.Sub.XviD-N3kr4","uid":10166651,"size":773961728,"categoryP":"video","categoryS":"hd___movies","magnet":"?xt=urn:btih:5260930e5c343dbc4f6d675e71629a9ecda726b8&amp;dn=Arrow.S02E23.HDTV.Greek.Sub.XviD-N3kr4&amp;tr=udp%3A%2F%2Ftracker.openbittorrent.com%3A80&amp;tr=udp%3A%2F%2Fopen.demonii.com%3A1337&amp;tr=udp%3A%2F%2Ftracker.coppersurfer.tk%3A6969&amp;tr=udp%3A%2F%2Fexodus.desync.com%3A6969","seeders":1,"leechers":1,"uploader":"Falcon.G13","files":1,"time":1400348571,"description":" &lt;a href=&quot;http://i.imgur.com/T8amaNB.jpg&quot; rel=&quot;nofollow&quot; target=&quot;_NEW&quot;&gt;http://i.imgur.com/T8amaNB.jpg&lt;/a&gt; &lt;a href=&quot;\nhttp://i.imgur.com/VSdHK3e.jpg&quot; rel=&quot;nofollow&quot; target=&quot;_NEW&quot;&gt;\nhttp://i.imgur.com/VSdHK3e.jpg&lt;/a&gt; &lt;a href=&quot;\nhttp://i.imgur.com/eaJan0j.jpg&quot; rel=&quot;nofollow&quot; target=&quot;_NEW&quot;&gt;\nhttp://i.imgur.com/eaJan0j.jpg&lt;/a&gt; &lt;a href=&quot;\nhttp://i.imgur.com/iD1uQa8.jpg&quot; rel=&quot;nofollow&quot; target=&quot;_NEW&quot;&gt;\nhttp://i.imgur.com/iD1uQa8.jpg&lt;/a&gt; &lt;a href=&quot;\nhttp://i.imgur.com/EmfvDc9.jpg&quot; rel=&quot;nofollow&quot; target=&quot;_NEW&quot;&gt;\nhttp://i.imgur.com/EmfvDc9.jpg&lt;/a&gt;\n\nGeneral\nComplete name : Arrow.S02E23.HDTV.Greek.Sub.XviD-N3kr4.avi\nFormat : AVI\nFormat/Info : Audio Video Interleave\nFile size : 738 MiB\nDuration : 42mn 4s\nOverall bit rate : 2 452 Kbps\nWriting application : VirtualDubMod 1.5.10.2 (build 2542/release)\nWriting library : VirtualDubMod build 2542/release\n\nVideo\nID : 0\nFormat : MPEG-4 Visual\nFormat profile : Advanced Simple@L5\nFormat settings, BVOP : Yes\nFormat settings, QPel : No\nFormat settings, GMC : No warppoints\nFormat settings, Matrix : Default (H.263)\nCodec ID : XVID\nCodec ID/Hint : XviD\nDuration : 42mn 4s\nBit rate : 2 124 Kbps\nWidth : 720 pixels\nHeight : 386 pixels\nDisplay aspect ratio : 1.85:1\nFrame rate : 23.976 fps\nColor space : YUV\nChroma subsampling : 4:2:0\nBit depth : 8 bits\nScan type : Progressive\nCompression mode : Lossy\nBits/(Pixel*Frame) : 0.319\nStream size : 639 MiB (87%)\nWriting library : XviD 64\n\nAudio\nID : 1\nFormat : AC-3\nFormat/Info : Audio Coding 3\nMode extension : CM (complete main)\nFormat settings, Endianness : Big\nCodec ID : 2000\nDuration : 42mn 4s\nBit rate mode : Constant\nBit rate : 320 Kbps\nChannel(s) : 2 channels\nChannel positions : Front: L R\nSampling rate : 48.0 KHz\nBit depth : 16 bits\nCompression mode : Lossy\nStream size : 96.3 MiB (13%)\nAlignment : Split accross interleaves\nInterleave, duration : 64 ms (1.53 video frames)\nInterleave, preload duration : 500 ms","torrent":{"xt":"urn:btih:5260930e5c343dbc4f6d675e71629a9ecda726b8","amp;dn":"Arrow.S02E23.HDTV.Greek.Sub.XviD-N3kr4","amp;tr":["udp%3A%2F%2Ftracker.openbittorrent.com%3A80","udp%3A%2F%2Fopen.demonii.com%3A1337","udp%3A%2F%2Ftracker.coppersurfer.tk%3A6969","udp%3A%2F%2Fexodus.desync.com%3A6969"],"infoHash":"5260930e5c343dbc4f6d675e71629a9ecda726b8","infoHashBuffer":{"type":"Buffer","data":[82,96,147,14,92,52,61,188,79,109,103,94,113,98,154,158,205,167,38,184]},"announce":[],"urlList":[]}}